<svg xlink="http://www.w3.org/1999/xlink" viewBox="0 0 5000 5000" xmlns="http://www.w3.org/2000/svg" style="transform: scale(1);"><defs><filter id="goo"><feGaussianBlur in="SourceGraphic" stdDeviation="0" result="blur"></feGaussianBlur><feColorMatrix in="blur" type="matrix" values="1 0 0 0 0 0 1 0 0 0 0 0 1 0 0 0 0 0 19 -9" result="good"></feColorMatrix><feComposite in="SourceGraphic" in2="goo" operator="atop"></feComposite></filter><path d="M200,197C222,178 250,218 259,221C269,224 312,205 321,232C327,260 278,266 271,272C262,280 250,327 227,319C205,312 224,269 220,258C218,246 182,213 200,197z" id="P0"></path><path d="M221,290C211,282 226,261 225,255C223,248 202,234 210,221C218,211 239,226 245,225C252,223 266,202 279,210C289,218 274,239 276,247C277,253 297,269 290,279C282,289 261,274 253,276C247,277 231,297 221,290z" id="P1"></path><path d="M284,164C301,169 274,224 279,231C283,237 344,232 343,256C343,274 282,265 277,272C273,277 296,334 273,340C256,346 246,285 237,282C231,280 184,320 171,300C161,285 215,257 215,248C215,241 163,209 178,191C189,176 233,219 241,216C248,214 262,155 284,164z" id="P2"></path><path d="M337,187C361,222 290,255 284,266C279,277 305,349 264,357C222,361 227,282 220,272C211,260 136,236 152,204C167,172 231,215 245,213C260,211 317,157 337,187z" id="P3"></path><path d="M215,292C204,284 224,260 223,252C222,245 198,226 208,215C216,204 240,224 248,223C255,222 274,198 285,208C296,216 276,240 277,248C278,255 302,274 292,285C284,296 260,276 252,277C245,278 226,302 215,292z" id="P4"></path><path d="M274,155C293,159 272,220 277,227C282,232 346,219 348,244C350,263 285,261 280,269C277,275 309,332 286,341C269,349 250,287 241,284C234,283 191,332 174,312C162,299 215,261 214,252C214,245 154,219 167,197C176,181 228,220 237,217C243,214 250,149 274,155z" id="P5"></path><path d="M298,163C331,183 286,238 286,250C286,262 334,311 303,334C270,353 243,287 233,281C221,274 150,282 151,250C151,218 220,228 231,220C243,213 270,147 298,163z" id="P6"></path><path d="M360,278C354,307 279,278 269,284C260,289 250,369 222,360C193,354 222,279 217,271C212,262 132,257 140,222C146,193 221,222 229,217C238,212 243,132 278,140C307,146 278,221 283,229C288,238 368,243 360,278z" id="P7"></path><path d="M201,277C195,268 222,254 223,247C223,241 199,222 209,212C216,203 238,225 245,223C250,222 261,193 274,199C284,203 270,231 274,237C277,241 307,243 306,257C305,268 275,263 270,269C266,273 275,302 260,305C250,308 245,278 238,275C234,273 208,289 201,277z" id="P8"></path></defs><rect id="RECT" width="5000" height="5000" fill="#464660"></rect><g id="group" fill="#368B85" filter=""><use x="-171" y="-200" href="#P5"></use><use x="110" y="978" href="#P2"></use><use x="-225" y="1978" href="#P4"></use><use x="273" y="2571" href="#P6"></use><use x="211" y="3801" href="#P6"></use><use x="335" y="4470" href="#P4"></use><use x="-5" y="5458" href="#P1"></use><use x="1403" y="179" href="#P3"></use><use x="1206" y="699" href="#P0"></use><use x="1435" y="1971" href="#P3"></use><use x="1293" y="2423" href="#P2"></use><use x="1388" y="3712" href="#P2"></use><use x="1289" y="4248" href="#P1"></use><use x="988" y="5342" href="#P0"></use><use x="1877" y="327" href="#P8"></use><use x="2349" y="1185" href="#P5"></use><use x="1961" y="2013" href="#P5"></use><use x="1705" y="2964" href="#P1"></use><use x="2457" y="3741" href="#P8"></use><use x="2387" y="3976" href="#P3"></use><use x="1968" y="5301" href="#P1"></use><use x="3066" y="-143" href="#P2"></use><use x="2935" y="694" href="#P3"></use><use x="3402" y="1714" href="#P4"></use><use x="2929" y="2379" href="#P7"></use><use x="2656" y="3309" href="#P4"></use><use x="3199" y="4232" href="#P2"></use><use x="2869" y="5403" href="#P1"></use><use x="3867" y="-51" href="#P1"></use><use x="3552" y="1148" href="#P1"></use><use x="3826" y="1812" href="#P3"></use><use x="4127" y="2304" href="#P0"></use><use x="4033" y="3728" href="#P2"></use><use x="4335" y="4336" href="#P8"></use><use x="4225" y="4683" href="#P3"></use><use x="4888" y="286" href="#P7"></use><use x="4772" y="1203" href="#P2"></use><use x="5028" y="1804" href="#P5"></use><use x="5131" y="2383" href="#P3"></use><use x="5168" y="3380" href="#P6"></use><use x="4365" y="4564" href="#P2"></use><use x="4359" y="4697" href="#P3"></use></g></svg>